<mxfile host="app.diagrams.net" modified="2022-01-11T12:57:16.945Z" agent="5.0 (Windows NT 10.0; Win64; x64) AppleWebKit/537.36 (KHTML, like Gecko) Chrome/96.0.4664.110 Safari/537.36" etag="ycPOSwKsnS2e1r-scROl" version="16.2.4" type="github">
  <diagram id="dSxesr2w6nbIqKYPazPV" name="Page-1">
    <mxGraphModel dx="1038" dy="547" grid="1" gridSize="10" guides="1" tooltips="1" connect="1" arrows="1" fold="1" page="1" pageScale="1" pageWidth="827" pageHeight="1169" math="0" shadow="0">
      <root>
        <mxCell id="0" />
        <mxCell id="1" parent="0" />
        <mxCell id="dZX7lCPMRzCcGpM4fvas-17" style="edgeStyle=orthogonalEdgeStyle;rounded=0;orthogonalLoop=1;jettySize=auto;html=1;entryX=0.5;entryY=0;entryDx=0;entryDy=0;" edge="1" parent="1" source="dZX7lCPMRzCcGpM4fvas-1" target="dZX7lCPMRzCcGpM4fvas-2">
          <mxGeometry relative="1" as="geometry" />
        </mxCell>
        <mxCell id="dZX7lCPMRzCcGpM4fvas-1" value="start" style="rounded=1;whiteSpace=wrap;html=1;" vertex="1" parent="1">
          <mxGeometry x="260" y="40" width="50" height="20" as="geometry" />
        </mxCell>
        <mxCell id="dZX7lCPMRzCcGpM4fvas-9" style="edgeStyle=orthogonalEdgeStyle;rounded=0;orthogonalLoop=1;jettySize=auto;html=1;exitX=0;exitY=0.5;exitDx=0;exitDy=0;" edge="1" parent="1" source="dZX7lCPMRzCcGpM4fvas-2" target="dZX7lCPMRzCcGpM4fvas-6">
          <mxGeometry relative="1" as="geometry" />
        </mxCell>
        <mxCell id="dZX7lCPMRzCcGpM4fvas-10" style="edgeStyle=orthogonalEdgeStyle;rounded=0;orthogonalLoop=1;jettySize=auto;html=1;entryX=0.5;entryY=0;entryDx=0;entryDy=0;" edge="1" parent="1" source="dZX7lCPMRzCcGpM4fvas-2" target="dZX7lCPMRzCcGpM4fvas-5">
          <mxGeometry relative="1" as="geometry" />
        </mxCell>
        <mxCell id="dZX7lCPMRzCcGpM4fvas-2" value="%4?" style="rhombus;whiteSpace=wrap;html=1;" vertex="1" parent="1">
          <mxGeometry x="245" y="110" width="80" height="80" as="geometry" />
        </mxCell>
        <mxCell id="dZX7lCPMRzCcGpM4fvas-3" value="Leap" style="rounded=1;whiteSpace=wrap;html=1;" vertex="1" parent="1">
          <mxGeometry x="340" y="10" width="60" height="20" as="geometry" />
        </mxCell>
        <mxCell id="dZX7lCPMRzCcGpM4fvas-4" value="NoLeap" style="rounded=1;whiteSpace=wrap;html=1;" vertex="1" parent="1">
          <mxGeometry x="414" y="10" width="60" height="20" as="geometry" />
        </mxCell>
        <mxCell id="dZX7lCPMRzCcGpM4fvas-14" style="edgeStyle=orthogonalEdgeStyle;rounded=0;orthogonalLoop=1;jettySize=auto;html=1;entryX=0.5;entryY=0;entryDx=0;entryDy=0;" edge="1" parent="1" source="dZX7lCPMRzCcGpM4fvas-5" target="dZX7lCPMRzCcGpM4fvas-13">
          <mxGeometry relative="1" as="geometry" />
        </mxCell>
        <mxCell id="dZX7lCPMRzCcGpM4fvas-5" value="Leap" style="rounded=1;whiteSpace=wrap;html=1;" vertex="1" parent="1">
          <mxGeometry x="340" y="220" width="60" height="20" as="geometry" />
        </mxCell>
        <mxCell id="dZX7lCPMRzCcGpM4fvas-6" value="NoLeap" style="rounded=1;whiteSpace=wrap;html=1;" vertex="1" parent="1">
          <mxGeometry x="140" y="220" width="60" height="20" as="geometry" />
        </mxCell>
        <mxCell id="dZX7lCPMRzCcGpM4fvas-11" value="Y" style="text;html=1;strokeColor=none;fillColor=none;align=center;verticalAlign=middle;whiteSpace=wrap;rounded=0;" vertex="1" parent="1">
          <mxGeometry x="325" y="120" width="60" height="30" as="geometry" />
        </mxCell>
        <mxCell id="dZX7lCPMRzCcGpM4fvas-12" value="N" style="text;html=1;strokeColor=none;fillColor=none;align=center;verticalAlign=middle;whiteSpace=wrap;rounded=0;" vertex="1" parent="1">
          <mxGeometry x="170" y="120" width="60" height="30" as="geometry" />
        </mxCell>
        <mxCell id="dZX7lCPMRzCcGpM4fvas-18" style="edgeStyle=orthogonalEdgeStyle;rounded=0;orthogonalLoop=1;jettySize=auto;html=1;entryX=0.5;entryY=0;entryDx=0;entryDy=0;" edge="1" parent="1" source="dZX7lCPMRzCcGpM4fvas-13" target="dZX7lCPMRzCcGpM4fvas-15">
          <mxGeometry relative="1" as="geometry" />
        </mxCell>
        <mxCell id="dZX7lCPMRzCcGpM4fvas-13" value="%100?" style="rhombus;whiteSpace=wrap;html=1;" vertex="1" parent="1">
          <mxGeometry x="330" y="270" width="80" height="80" as="geometry" />
        </mxCell>
        <mxCell id="dZX7lCPMRzCcGpM4fvas-15" value="Leap" style="rounded=1;whiteSpace=wrap;html=1;" vertex="1" parent="1">
          <mxGeometry x="255" y="380" width="60" height="20" as="geometry" />
        </mxCell>
        <mxCell id="dZX7lCPMRzCcGpM4fvas-16" value="NoLeap" style="rounded=1;whiteSpace=wrap;html=1;" vertex="1" parent="1">
          <mxGeometry x="420" y="380" width="60" height="20" as="geometry" />
        </mxCell>
      </root>
    </mxGraphModel>
  </diagram>
</mxfile>
